<svg xmlns="http://www.w3.org/2000/svg" xml:space="preserve" width="1500" height="1500" fill="#fff" stroke="#fff" data-id="lg_ZWoF5Lr1qIfHZghGnx" data-version="1"><path fill="#000" stroke="transparent" d="M0 0h1500v1500H0z"/><g data-padding="20"><g stroke="none" transform="translate(-769.507 -775.03)scale(1.96906)"><path fill="#373737" d="M646.177 852.16h-8.64v-63.7h8.64v27.21h31.4v-27.21h8.64v63.7h-8.64v-29.03h-31.4Zm73.26 1.09q-10.2 0-16.16-6.51-5.96-6.5-5.96-18.24 0-7.1 2.69-12.7 2.68-5.59 7.51-8.82 4.82-3.24 11.19-3.24 6.82 0 11.33 2.96 4.5 2.96 6.78 7.96 2.27 5.01 2.27 11.02 0 3.18-.27 6.18h-33.12q.81 6.65 4.64 10.38 3.82 3.73 10.1 3.73 4.09 0 7.37-.87 3.27-.86 6.28-2.23l1.91 7.01q-3.28 1.46-7.37 2.41-4.1.96-9.19.96m-13.84-28.03h25.94q0-6.92-3.46-10.65t-9.55-3.73q-5.28 0-8.74 3.69-3.46 3.68-4.19 10.69m61.34 28.03q-5.92 0-10.74-3-4.82-3.01-7.69-8.51-2.87-5.51-2.87-12.97 0-7.1 2.87-12.74t7.92-8.96q5.05-3.33 11.6-3.33 4.1 0 7.42 1.42 3.32 1.41 5.78 3.5v-3.82h7.46v35.85q0 3.46 1.68 4.51 1.68 1.04 3.69 1.04l-1.73 6.37q-8.74 0-10.56-7.1-2.09 2.92-5.69 5.33-3.59 2.41-9.14 2.41m1.82-7.28q3.46 0 6.55-1.68 3.09-1.69 5.19-4.24v-25.39q-2.46-1.72-5.42-2.77-2.95-1.05-6.23-1.05-4.37 0-7.69 2.23t-5.23 6.19-1.91 9.24q0 5.09 1.91 9.05t5.28 6.19q3.36 2.23 7.55 2.23m49.41 7.28q-4.18 0-7.55-1.59-3.37-1.6-5.32-5.15-1.96-3.54-1.96-9.19v-52.5h8.19v51.68q0 4.92 2.05 7.28 2.04 2.37 5.68 2.37 1.73 0 3.42-.41 1.68-.41 2.86-.95l2 6.64q-1.63.73-4.04 1.27-2.42.55-5.33.55m29.76.01q-6.83 0-10.78-4.51-3.96-4.5-3.96-12.87v-22.21h-8.19v-7.09h8.37l1.73-14.93h6.28v14.93h13.1v7.09h-13.1v22.84q0 5.28 2.23 7.38 2.23 2.09 5.32 2.09 2.27 0 4.32-.73t3.78-1.73l2.27 6.55q-1.82 1.1-4.91 2.14-3.09 1.05-6.46 1.05m26.57-1.1h-8.19v-67.34h8.19v27.57q2.55-3.73 6.46-6.19t9.19-2.46q8.01 0 11.97 4.83 3.96 4.82 3.96 12.74v30.85h-8.19v-29.94q0-5.1-2.37-8.19-2.36-3.1-6.64-3.1-4.19 0-7.96 2.96-3.78 2.96-6.42 6.96Zm-153.89 78.21q-7.1 0-12.65-2.59-5.55-2.6-9.42-7.1t-5.91-10.51q-2.05-6.01-2.05-12.83 0-9.37 3.59-16.79 3.6-7.42 10.33-11.74 6.74-4.32 16.11-4.32 7.01 0 12.6 2.55 5.6 2.54 9.51 7.09 3.92 4.55 5.96 10.47 2.05 5.91 2.05 12.74 0 6.82-2.05 12.83-2.04 6.01-5.96 10.51-3.91 4.5-9.46 7.1-5.55 2.59-12.65 2.59m0-7.46q7.01 0 11.74-3.37 4.73-3.36 7.14-9.14t2.41-13.06q0-4.92-1.45-9.47-1.46-4.55-4.19-8.14t-6.69-5.69q-3.96-2.09-8.96-2.09-6.64 0-11.42 3.37-4.78 3.36-7.28 9.1-2.5 5.73-2.5 12.92 0 4.91 1.41 9.51 1.41 4.59 4.14 8.23t6.69 5.74q3.95 2.09 8.96 2.09m48.97 6.38h-8.19v-47.32h7.91v7.92q2.55-3.83 6.51-6.42t9.42-2.59q8.01 0 11.97 4.82 3.95 4.82 3.95 12.74v30.85h-8.19v-29.94q0-5.1-2.41-8.19t-6.69-3.09q-4.18 0-7.91 2.95-3.73 2.96-6.37 6.97Zm63.41 1.08q-10.19 0-16.15-6.51-5.96-6.5-5.96-18.24 0-7.1 2.69-12.7 2.68-5.59 7.5-8.82 4.83-3.23 11.2-3.23 6.82 0 11.33 2.95 4.5 2.96 6.78 7.97 2.27 5 2.27 11.01 0 3.18-.27 6.19h-33.13q.82 6.64 4.64 10.37 3.83 3.73 10.11 3.73 4.09 0 7.37-.86 3.27-.87 6.28-2.23l1.91 7q-3.28 1.46-7.37 2.42-4.1.95-9.2.95m-13.83-28.03h25.94q0-6.91-3.46-10.64t-9.56-3.73q-5.27 0-8.73 3.68-3.46 3.69-4.19 10.69"/><rect width="487.19" height="179.95" x="127.597" y="263.08" fill="none" rx="0" ry="0" transform="translate(400.5 509.54)"/><path fill="#303030" d="M813.15 687.99q-.956-17.901-5.07-35.373c-.683-2.808-.351-5.85-.839-8.717a179 179 0 0 0-2.983-14.859c-1.307-5.05-7.469-6.981-11.778-3.978q-.546.39-1.248.975a9.36 9.36 0 0 0-7.84-5.245 9.16 9.16 0 0 0-8.599 3.529 10.92 10.92 0 0 0-17.784-1.482l-.585-1.501a119 119 0 0 0-8.521-19.052 11.3 11.3 0 0 0-6.981-5.401 13.7 13.7 0 0 0-4.895-.04 11.7 11.7 0 0 0-6.006 4.408c-.643.877-1.462 4.875-.897 6.903.312 1.111 4.875 11.524 7.274 17.413a242 242 0 0 1 10.569 31.415c.312 1.209.156 1.813-1.034 2.476a10.725 10.725 0 0 0-4.777 12.441 10.335 10.335 0 0 0 10.608 7.703c1.248-.059 1.833.35 2.028 1.423.37 1.95.877 3.939.936 5.928.526 19.461-2.048 38.454-8.873 56.745a154 154 0 0 1-11.154 23.303c-1.482 2.535-1.209 3.607 1.229 5.07h.955c.82-.78 1.872-1.424 2.418-2.38a144.3 144.3 0 0 0 20.514-67.08c.449-8.072 1.346-16.223-1.072-24.316l4.095-1.111c.819-.234 1.423-.156 2.145.487 3.003 2.691 7.449 3.315 10.647 1.19 1.794-1.17 3.198-3.003 4.836-4.602a8.58 8.58 0 0 0 8.092 2.535c3.315-.585 5.265-2.906 6.747-5.772 3.959 2.223 7.41 1.404 10.725-1.99.585 6.24 1.248 11.954 1.638 17.687a173.6 173.6 0 0 1-2.515 43.875c-2.399 12.734-6.786 24.804-12.032 36.602-1.13 2.554-.877 3.412 1.346 4.914h1.287c.78-.956 1.794-1.794 2.281-2.886a163.8 163.8 0 0 0 13.221-42.198 187.2 187.2 0 0 0 1.892-39.02m-31.902-61.795c2.067-.468 4.563.468 4.875 2.028 1.17 5.889 2.203 11.778 3.354 18.018a9.56 9.56 0 0 0-7.956 1.501c-.605-3.607-1.21-6.981-1.736-10.374q-.604-3.861-1.092-7.722c-.234-1.813.78-3.061 2.555-3.471m-18.155-1.501c2.886-1.365 6.299.156 6.903 3.276 1.404 7.195 2.691 14.43 4.056 21.625.195.936 0 1.443-.975 1.775-2.496.838-4.972 1.774-7.624 2.73a3007 3007 0 0 1-4.505-25.545c-.312-1.755.527-3.101 2.145-3.861M735.111 609.6a9.75 9.75 0 0 1-.722-4.622c.04-1.755 1.716-3.1 3.51-3.061 2.184.039 3.978.78 5.168 2.808a115 115 0 0 1 11.134 27.417c2.067 7.37 3.744 14.839 5.577 22.269q.117.487.195 1.248c-2.418.585-4.777 1.17-7.273 1.813-.82-2.905-1.54-5.713-2.36-8.502a249.6 249.6 0 0 0-15.21-39.37m52.572 61.912c-1.52.429-2.925-.292-3.705-1.95l6.162-3.256c.41 2.73-.507 4.66-2.457 5.206m-.117-9.945c-11.017 6.318-22.951 10.023-35.295 12.617-3.393.702-6.181-1.911-6.142-5.558 0-2.71 1.716-4.719 4.582-5.284a140.4 140.4 0 0 0 29.055-8.931 80 80 0 0 0 5.05-2.399c1.366-.721 2.653-1.092 3.998-.039 1.424 1.15 2.262 2.633 2.048 4.446a6.44 6.44 0 0 1-3.296 5.129m14.937-1.502c-.097 1.424-.117 2.867-.331 4.29-.254 1.794-2.028 2.945-3.452 2.34-.975-.429-1.365-1.17-1.365-2.281.078-3.042.04-6.084.04-8.034-.137-8.873-.78-16.595-2.633-24.18-.37-1.56.234-2.73 1.501-3.062 1.502-.39 2.574.312 3.042 2.009a89.7 89.7 0 0 1 3.198 28.918"/></g><path fill="transparent" stroke="transparent" stroke-width="2.053" d="M250 384.497h1000v731.006H250z"/></g></svg>